<svg xmlns="http://www.w3.org/2000/svg" viewBox="0 0 1885 653.49"><defs><style>.cls-1{fill:#a9a9b3;stroke:#fff;stroke-miterlimit:10;}</style></defs><g id="Layer_2" data-name="Layer 2"><g id="letter"><rect class="cls-1" x="714.92" y="115.73" width="172.84" height="172.84"/><path class="cls-1" d="M1060.61,634.26H714.92V461.42c518.53,0,518.53-345.69,518.53-345.69C1233.45,634.26,1060.61,634.26,1060.61,634.26Z"/><path class="cls-1" d="M1366,115.73V461.42h345.69c0,172.84-345.69,172.84-345.69,172.84h345.69c172.84,0,172.84-172.84,172.84-172.84V115.73Zm282.31,267.91H1458.15V193.51h190.13Z"/><path class="cls-1" d="M363.53,563.21C407.35,653,519,653,519,653s-146.2,0-248.45-47.55"/><path class="cls-1" d="M271.93,605.59C138.37,653,.5,653,.5,653s345.69,0,345.69-345.69H.5V134.45H519V307.3c0,126.09-69,206.18-156.63,257.07"/><rect class="cls-1" x="477.26" y="0.5" width="66.26" height="123.87"/><rect class="cls-1" x="563.68" y="0.5" width="66.26" height="123.87"/></g></g></svg>